ply
format ascii 1.0
comment Created in Blender version 5.1.2
element vertex 302
property float x
property float y
property float z
property float s
property float t
element face 86
property list uchar uint vertex_indices
end_header
-1.449174 0.09309143 6.334541e-08 1 0.5
1.449174 0.09309143 -6.334541e-08 1 1
1.449174 0.0913027 -0.0181613 0.96875 1
-1.449174 0.0913027 -0.018161174 0.96875 0.5
1.449174 0.08600526 -0.035624612 0.9375 1
-1.449174 0.08600526 -0.035624485 0.9375 0.5
1.449174 0.07740269 -0.05171889 0.90625 1
-1.449174 0.07740269 -0.051718764 0.90625 0.5
1.449174 0.06582558 -0.06582565 0.875 1
-1.449174 0.06582558 -0.065825514 0.875 0.5
1.449174 0.051718827 -0.077402756 0.84375 1
-1.449174 0.051718827 -0.07740262 0.84375 0.5
1.449174 0.03562455 -0.08600533 0.8125 1
-1.449174 0.03562455 -0.086005196 0.8125 0.5
1.449174 0.018161237 -0.09130277 0.78125 1
-1.449174 0.018161237 -0.09130263 0.78125 0.5
1.449174 0 -0.093091495 0.75 1
-1.449174 0 -0.09309136 0.75 0.5
1.449174 -0.018161237 -0.09130277 0.71875 1
-1.449174 -0.018161237 -0.09130263 0.71875 0.5
1.449174 -0.03562455 -0.08600533 0.6875 1
-1.449174 -0.03562455 -0.086005196 0.6875 0.5
1.449174 -0.051718827 -0.077402756 0.65625 1
-1.449174 -0.051718827 -0.07740262 0.65625 0.5
1.449174 -0.06582558 -0.06582565 0.625 1
-1.449174 -0.06582558 -0.065825514 0.625 0.5
1.449174 -0.07740269 -0.05171889 0.59375 1
-1.449174 -0.07740269 -0.051718764 0.59375 0.5
1.449174 -0.08600526 -0.035624612 0.5625 1
-1.449174 -0.08600526 -0.035624485 0.5625 0.5
1.449174 -0.0913027 -0.0181613 0.53125 1
-1.449174 -0.0913027 -0.018161174 0.53125 0.5
1.449174 -0.09309143 -6.334541e-08 0.5 1
-1.449174 -0.09309143 6.334541e-08 0.5 0.5
1.449174 -0.0913027 0.018161174 0.46875 1
-1.449174 -0.0913027 0.0181613 0.46875 0.5
1.449174 -0.08600526 0.035624485 0.4375 1
-1.449174 -0.08600526 0.035624612 0.4375 0.5
1.449174 -0.07740269 0.051718764 0.40625 1
-1.449174 -0.07740269 0.05171889 0.40625 0.5
1.449174 -0.06582558 0.065825514 0.375 1
-1.449174 -0.06582558 0.06582565 0.375 0.5
1.449174 -0.051718827 0.07740262 0.34375 1
-1.449174 -0.051718827 0.077402756 0.34375 0.5
1.449174 -0.03562455 0.086005196 0.3125 1
-1.449174 -0.03562455 0.08600533 0.3125 0.5
1.449174 -0.018161237 0.09130263 0.28125 1
-1.449174 -0.018161237 0.09130277 0.28125 0.5
1.449174 0 0.09309136 0.25 1
-1.449174 0 0.093091495 0.25 0.5
1.449174 0.018161237 0.09130263 0.21875 1
-1.449174 0.018161237 0.09130277 0.21875 0.5
1.449174 0.03562455 0.086005196 0.1875 1
-1.449174 0.03562455 0.08600533 0.1875 0.5
1.449174 0.051718827 0.07740262 0.15625 1
-1.449174 0.051718827 0.077402756 0.15625 0.5
1.449174 0.06582558 0.065825514 0.125 1
-1.449174 0.06582558 0.06582565 0.125 0.5
1.449174 0.07740269 0.051718764 0.09375 1
-1.449174 0.07740269 0.05171889 0.09375 0.5
1.449174 0.08600526 0.035624485 0.0625 1
-1.449174 0.08600526 0.035624612 0.0625 0.5
1.449174 0.0913027 -0.0181613 0.29682168 0.48538846
1.449174 0.09309143 -6.334541e-08 0.25 0.48999998
1.449174 0.0913027 0.018161174 0.20317832 0.48538846
1.449174 0.08600526 0.035624485 0.15815598 0.47173107
1.449174 0.07740269 0.051718764 0.11666314 0.44955269
1.449174 0.06582558 0.065825514 0.080294386 0.41970563
1.449174 0.051718827 0.07740262 0.050447315 0.38333684
1.449174 0.03562455 0.086005196 0.028268933 0.34184402
1.449174 0.018161237 0.09130263 0.014611557 0.29682168
1.449174 0 0.09309136 0.01000002 0.25
1.449174 -0.018161237 0.09130263 0.014611557 0.20317832
1.449174 -0.03562455 0.086005196 0.028268933 0.15815598
1.449174 -0.051718827 0.07740262 0.050447315 0.11666314
1.449174 -0.06582558 0.065825514 0.080294386 0.080294386
1.449174 -0.07740269 0.051718764 0.11666314 0.050447315
1.449174 -0.08600526 0.035624485 0.15815598 0.028268933
1.449174 -0.0913027 0.018161174 0.20317832 0.014611557
1.449174 -0.09309143 -6.334541e-08 0.25 0.01000002
1.449174 -0.0913027 -0.0181613 0.29682168 0.014611557
1.449174 -0.08600526 -0.035624612 0.34184402 0.028268933
1.449174 -0.07740269 -0.05171889 0.38333684 0.050447315
1.449174 -0.06582558 -0.06582565 0.41970563 0.080294386
1.449174 -0.051718827 -0.077402756 0.44955269 0.11666314
1.449174 -0.03562455 -0.08600533 0.47173107 0.15815598
1.449174 -0.018161237 -0.09130277 0.48538846 0.20317832
1.449174 0 -0.093091495 0.48999998 0.25
1.449174 0.018161237 -0.09130277 0.48538846 0.29682168
1.449174 0.03562455 -0.08600533 0.47173107 0.34184402
1.449174 0.051718827 -0.077402756 0.44955269 0.38333684
1.449174 0.06582558 -0.06582565 0.41970563 0.41970563
1.449174 0.07740269 -0.05171889 0.38333684 0.44955269
1.449174 0.08600526 -0.035624612 0.34184402 0.47173107
1.449174 0.0913027 0.018161174 0.03125 1
-1.449174 0.0913027 0.0181613 0.03125 0.5
1.449174 0.09309143 -6.334541e-08 0 1
-1.449174 0.09309143 6.334541e-08 0 0.5
-1.449174 0.09309143 6.334541e-08 0.75 0.48999998
-1.449174 0.0913027 -0.018161174 0.79682165 0.48538846
-1.449174 0.08600526 -0.035624485 0.841844 0.47173107
-1.449174 0.07740269 -0.051718764 0.88333684 0.44955269
-1.449174 0.06582558 -0.065825514 0.9197056 0.41970563
-1.449174 0.051718827 -0.07740262 0.94955266 0.38333684
-1.449174 0.03562455 -0.086005196 0.97173107 0.34184402
-1.449174 0.018161237 -0.09130263 0.98538846 0.29682168
-1.449174 0 -0.09309136 0.99 0.25
-1.449174 -0.018161237 -0.09130263 0.98538846 0.20317832
-1.449174 -0.03562455 -0.086005196 0.97173107 0.15815598
-1.449174 -0.051718827 -0.07740262 0.94955266 0.11666314
-1.449174 -0.06582558 -0.065825514 0.9197056 0.080294386
-1.449174 -0.07740269 -0.051718764 0.88333684 0.050447315
-1.449174 -0.08600526 -0.035624485 0.841844 0.028268933
-1.449174 -0.0913027 -0.018161174 0.79682165 0.014611557
-1.449174 -0.09309143 6.334541e-08 0.75 0.01000002
-1.449174 -0.0913027 0.0181613 0.70317835 0.014611557
-1.449174 -0.08600526 0.035624612 0.658156 0.028268933
-1.449174 -0.07740269 0.05171889 0.61666316 0.050447315
-1.449174 -0.06582558 0.06582565 0.5802944 0.080294386
-1.449174 -0.051718827 0.077402756 0.55044734 0.11666314
-1.449174 -0.03562455 0.08600533 0.52826893 0.15815598
-1.449174 -0.018161237 0.09130277 0.51461154 0.20317832
-1.449174 0 0.093091495 0.51 0.25
-1.449174 0.018161237 0.09130277 0.51461154 0.29682168
-1.449174 0.03562455 0.08600533 0.52826893 0.34184402
-1.449174 0.051718827 0.077402756 0.55044734 0.38333684
-1.449174 0.06582558 0.06582565 0.5802944 0.41970563
-1.449174 0.07740269 0.05171889 0.61666316 0.44955269
-1.449174 0.08600526 0.035624612 0.658156 0.47173107
-1.449174 0.0913027 0.0181613 0.70317835 0.48538846
0 4.8353143 0.12791505 1 0.5
0 0 0.12791485 1 1
0.024954969 0 0.12545699 0.96875 1
0.024954969 4.8353143 0.1254572 0.96875 0.5
0.048950937 0 0.1181779 0.9375 1
0.048950937 4.8353143 0.11817811 0.9375 0.5
0.07106574 0 0.10635729 0.90625 1
0.07106574 4.8353143 0.1063575 0.90625 0.5
0.09044953 0 0.09044942 0.875 1
0.09044953 4.8353143 0.09044963 0.875 0.5
0.106357396 0 0.071065634 0.84375 1
0.106357396 4.8353143 0.07106584 0.84375 0.5
0.118178 0 0.048950832 0.8125 1
0.118178 4.8353143 0.04895104 0.8125 0.5
0.1254571 0 0.024954863 0.78125 1
0.1254571 4.8353143 0.024955075 0.78125 0.5
0.12791495 0 -1.0567915e-07 0.75 1
0.12791495 4.8353143 1.0567915e-07 0.75 0.5
0.1254571 0 -0.024955075 0.71875 1
0.1254571 4.8353143 -0.024954863 0.71875 0.5
0.118178 0 -0.04895104 0.6875 1
0.118178 4.8353143 -0.048950832 0.6875 0.5
0.106357396 0 -0.07106584 0.65625 1
0.106357396 4.8353143 -0.071065634 0.65625 0.5
0.09044953 0 -0.09044963 0.625 1
0.09044953 4.8353143 -0.09044942 0.625 0.5
0.07106574 0 -0.1063575 0.59375 1
0.07106574 4.8353143 -0.10635729 0.59375 0.5
0.048950937 0 -0.11817811 0.5625 1
0.048950937 4.8353143 -0.1181779 0.5625 0.5
0.024954969 0 -0.1254572 0.53125 1
0.024954969 4.8353143 -0.12545699 0.53125 0.5
0 0 -0.12791505 0.5 1
0 4.8353143 -0.12791485 0.5 0.5
-0.024954969 0 -0.1254572 0.46875 1
-0.024954969 4.8353143 -0.12545699 0.46875 0.5
-0.048950937 0 -0.11817811 0.4375 1
-0.048950937 4.8353143 -0.1181779 0.4375 0.5
-0.07106574 0 -0.1063575 0.40625 1
-0.07106574 4.8353143 -0.10635729 0.40625 0.5
-0.09044953 0 -0.09044963 0.375 1
-0.09044953 4.8353143 -0.09044942 0.375 0.5
-0.106357396 0 -0.07106584 0.34375 1
-0.106357396 4.8353143 -0.071065634 0.34375 0.5
-0.118178 0 -0.04895104 0.3125 1
-0.118178 4.8353143 -0.048950832 0.3125 0.5
-0.1254571 0 -0.024955075 0.28125 1
-0.1254571 4.8353143 -0.024954863 0.28125 0.5
-0.12791495 0 -1.0567915e-07 0.25 1
-0.12791495 4.8353143 1.0567915e-07 0.25 0.5
-0.1254571 0 0.024954863 0.21875 1
-0.1254571 4.8353143 0.024955075 0.21875 0.5
-0.118178 0 0.048950832 0.1875 1
-0.118178 4.8353143 0.04895104 0.1875 0.5
-0.106357396 0 0.071065634 0.15625 1
-0.106357396 4.8353143 0.07106584 0.15625 0.5
-0.09044953 0 0.09044942 0.125 1
-0.09044953 4.8353143 0.09044963 0.125 0.5
-0.07106574 0 0.10635729 0.09375 1
-0.07106574 4.8353143 0.1063575 0.09375 0.5
-0.048950937 0 0.1181779 0.0625 1
-0.048950937 4.8353143 0.11817811 0.0625 0.5
0.024954969 0 0.12545699 0.29682168 0.48538846
0 0 0.12791485 0.25 0.49
-0.024954969 0 0.12545699 0.20317832 0.48538846
-0.048950937 0 0.1181779 0.15815598 0.47173107
-0.07106574 0 0.10635729 0.11666314 0.4495527
-0.09044953 0 0.09044942 0.08029437 0.41970563
-0.106357396 0 0.071065634 0.050447285 0.38333684
-0.118178 0 0.048950832 0.028268918 0.34184402
-0.1254571 0 0.024954863 0.014611542 0.29682168
-0.12791495 0 -1.0567915e-07 0.00999999 0.25
-0.1254571 0 -0.024955075 0.014611542 0.20317832
-0.118178 0 -0.04895104 0.028268918 0.15815598
-0.106357396 0 -0.07106584 0.050447285 0.11666314
-0.09044953 0 -0.09044963 0.08029437 0.08029437
-0.07106574 0 -0.1063575 0.11666314 0.050447285
-0.048950937 0 -0.11817811 0.15815598 0.028268918
-0.024954969 0 -0.1254572 0.20317832 0.014611542
0 0 -0.12791505 0.25 0.00999999
0.024954969 0 -0.1254572 0.29682168 0.014611542
0.048950937 0 -0.11817811 0.34184402 0.028268918
0.07106574 0 -0.1063575 0.38333684 0.050447285
0.09044953 0 -0.09044963 0.41970563 0.08029437
0.106357396 0 -0.07106584 0.4495527 0.11666314
0.118178 0 -0.04895104 0.47173107 0.15815598
0.1254571 0 -0.024955075 0.48538846 0.20317832
0.12791495 0 -1.0567915e-07 0.49 0.25
0.1254571 0 0.024954863 0.48538846 0.29682168
0.118178 0 0.048950832 0.47173107 0.34184402
0.106357396 0 0.071065634 0.4495527 0.38333684
0.09044953 0 0.09044942 0.41970563 0.41970563
0.07106574 0 0.10635729 0.38333684 0.4495527
0.048950937 0 0.1181779 0.34184402 0.47173107
-0.024954969 0 0.12545699 0.03125 1
-0.024954969 4.8353143 0.1254572 0.03125 0.5
0 0 0.12791485 0 1
0 4.8353143 0.12791505 0 0.5
0 4.8353143 0.12791505 0.75 0.49
0.024954969 4.8353143 0.1254572 0.79682165 0.48538846
0.048950937 4.8353143 0.11817811 0.841844 0.47173107
0.07106574 4.8353143 0.1063575 0.88333684 0.4495527
0.09044953 4.8353143 0.09044963 0.9197056 0.41970563
0.106357396 4.8353143 0.07106584 0.9495527 0.38333684
0.118178 4.8353143 0.04895104 0.97173107 0.34184402
0.1254571 4.8353143 0.024955075 0.98538846 0.29682168
0.12791495 4.8353143 1.0567915e-07 0.99 0.25
0.1254571 4.8353143 -0.024954863 0.98538846 0.20317832
0.118178 4.8353143 -0.048950832 0.97173107 0.15815598
0.106357396 4.8353143 -0.071065634 0.9495527 0.11666314
0.09044953 4.8353143 -0.09044942 0.9197056 0.08029437
0.07106574 4.8353143 -0.10635729 0.88333684 0.050447285
0.048950937 4.8353143 -0.1181779 0.841844 0.028268918
0.024954969 4.8353143 -0.12545699 0.79682165 0.014611542
0 4.8353143 -0.12791485 0.75 0.00999999
-0.024954969 4.8353143 -0.12545699 0.70317835 0.014611542
-0.048950937 4.8353143 -0.1181779 0.658156 0.028268918
-0.07106574 4.8353143 -0.10635729 0.61666316 0.050447285
-0.09044953 4.8353143 -0.09044942 0.5802944 0.08029437
-0.106357396 4.8353143 -0.071065634 0.5504473 0.11666314
-0.118178 4.8353143 -0.048950832 0.52826893 0.15815598
-0.1254571 4.8353143 -0.024954863 0.51461154 0.20317832
-0.12791495 4.8353143 1.0567915e-07 0.51 0.25
-0.1254571 4.8353143 0.024955075 0.51461154 0.29682168
-0.118178 4.8353143 0.04895104 0.52826893 0.34184402
-0.106357396 4.8353143 0.07106584 0.5504473 0.38333684
-0.09044953 4.8353143 0.09044963 0.5802944 0.41970563
-0.07106574 4.8353143 0.1063575 0.61666316 0.4495527
-0.048950937 4.8353143 0.11817811 0.658156 0.47173107
-0.024954969 4.8353143 0.1254572 0.70317835 0.48538846
-0.55 -0.85 -0.55 0.375 0
-0.55 -0.85 0.95 0.625 0
-0.55 -0.75 0.95 0.625 0.25
-0.55 -0.75 -0.55 0.375 0.25
0.95 -0.75 0.95 0.625 0.5
0.95 -0.75 -0.55 0.375 0.5
0.95 -0.85 0.95 0.625 0.75
0.95 -0.85 -0.55 0.375 0.75
-0.55 -0.85 0.95 0.625 1
-0.55 -0.85 -0.55 0.375 1
-0.55 -0.75 -0.55 0.125 0.5
-0.55 -0.85 -0.55 0.125 0.75
-0.55 -0.75 0.95 0.875 0.5
-0.55 -0.85 0.95 0.875 0.75
-0.22018021 -1.3121299 1.5188686 0.375 0
-0.22018021 -1.3121299 2.1786804 0.625 0
-0.22018021 -1.0955948 2.1786804 0.625 0.25
-0.22018021 -1.0955948 1.5188686 0.375 0.25
0.1347734 -1.0955948 2.1786804 0.625 0.5
0.1347734 -1.0955948 1.5188686 0.375 0.5
0.1347734 -1.3121299 2.1786804 0.625 0.75
0.1347734 -1.3121299 1.5188686 0.375 0.75
-0.22018021 -1.3121299 2.1786804 0.625 1
-0.22018021 -1.3121299 1.5188686 0.375 1
-0.22018021 -1.0955948 1.5188686 0.125 0.5
-0.22018021 -1.3121299 1.5188686 0.125 0.75
-0.22018021 -1.0955948 2.1786804 0.875 0.5
-0.22018021 -1.3121299 2.1786804 0.875 0.75
0.6619899 -1.3161818 0.86554396 0.375 0
0.6619899 -1.3161818 1.4578351 0.625 0
0.6619899 -0.85010034 1.4578351 0.625 0.25
0.6619899 -0.85010034 0.86554396 0.375 0.25
1.0718414 -0.85010034 1.4578351 0.625 0.5
1.0718414 -0.85010034 0.86554396 0.375 0.5
1.0718414 -1.3161818 1.4578351 0.625 0.75
1.0718414 -1.3161818 0.86554396 0.375 0.75
0.6619899 -1.3161818 1.4578351 0.625 1
0.6619899 -1.3161818 0.86554396 0.375 1
0.6619899 -0.85010034 0.86554396 0.125 0.5
0.6619899 -1.3161818 0.86554396 0.125 0.75
0.6619899 -0.85010034 1.4578351 0.875 0.5
0.6619899 -1.3161818 1.4578351 0.875 0.75
4 0 1 2 3
4 3 2 4 5
4 5 4 6 7
4 7 6 8 9
4 9 8 10 11
4 11 10 12 13
4 13 12 14 15
4 15 14 16 17
4 17 16 18 19
4 19 18 20 21
4 21 20 22 23
4 23 22 24 25
4 25 24 26 27
4 27 26 28 29
4 29 28 30 31
4 31 30 32 33
4 33 32 34 35
4 35 34 36 37
4 37 36 38 39
4 39 38 40 41
4 41 40 42 43
4 43 42 44 45
4 45 44 46 47
4 47 46 48 49
4 49 48 50 51
4 51 50 52 53
4 53 52 54 55
4 55 54 56 57
4 57 56 58 59
4 59 58 60 61
32 62 63 64 65 66 67 68 69 70 71 72 73 74 75 76 77 78 79 80 81 82 83 84 85 86 87 88 89 90 91 92 93
4 61 60 94 95
4 95 94 96 97
32 98 99 100 101 102 103 104 105 106 107 108 109 110 111 112 113 114 115 116 117 118 119 120 121 122 123 124 125 126 127 128 129
4 130 131 132 133
4 133 132 134 135
4 135 134 136 137
4 137 136 138 139
4 139 138 140 141
4 141 140 142 143
4 143 142 144 145
4 145 144 146 147
4 147 146 148 149
4 149 148 150 151
4 151 150 152 153
4 153 152 154 155
4 155 154 156 157
4 157 156 158 159
4 159 158 160 161
4 161 160 162 163
4 163 162 164 165
4 165 164 166 167
4 167 166 168 169
4 169 168 170 171
4 171 170 172 173
4 173 172 174 175
4 175 174 176 177
4 177 176 178 179
4 179 178 180 181
4 181 180 182 183
4 183 182 184 185
4 185 184 186 187
4 187 186 188 189
4 189 188 190 191
32 192 193 194 195 196 197 198 199 200 201 202 203 204 205 206 207 208 209 210 211 212 213 214 215 216 217 218 219 220 221 222 223
4 191 190 224 225
4 225 224 226 227
32 228 229 230 231 232 233 234 235 236 237 238 239 240 241 242 243 244 245 246 247 248 249 250 251 252 253 254 255 256 257 258 259
4 260 261 262 263
4 263 262 264 265
4 265 264 266 267
4 267 266 268 269
4 270 265 267 271
4 264 272 273 266
4 274 275 276 277
4 277 276 278 279
4 279 278 280 281
4 281 280 282 283
4 284 279 281 285
4 278 286 287 280
4 288 289 290 291
4 291 290 292 293
4 293 292 294 295
4 295 294 296 297
4 298 293 295 299
4 292 300 301 294
