ply
format ascii 1.0
comment Created in Blender version 5.1.2
element vertex 316
property float x
property float y
property float z
property float s
property float t
element face 92
property list uchar uint vertex_indices
end_header
-1.8357584 0.037419453 8.024355e-08 1 0.5
1.8357584 0.037419453 -8.024355e-08 1 1
1.8357584 0.036700446 -0.0073002535 0.96875 1
-1.8357584 0.036700446 -0.0073000933 0.96875 0.5
1.8357584 0.034571066 -0.0143198855 0.9375 1
-1.8357584 0.034571066 -0.014319725 0.9375 0.5
1.8357584 0.031113138 -0.020789215 0.90625 1
-1.8357584 0.031113138 -0.020789055 0.90625 0.5
1.8357584 0.026459549 -0.026459629 0.875 1
-1.8357584 0.026459549 -0.026459469 0.875 0.5
1.8357584 0.020789135 -0.031113219 0.84375 1
-1.8357584 0.020789135 -0.031113058 0.84375 0.5
1.8357584 0.014319805 -0.03457115 0.8125 1
-1.8357584 0.014319805 -0.034570985 0.8125 0.5
1.8357584 0.0073001734 -0.036700528 0.78125 1
-1.8357584 0.0073001734 -0.036700364 0.78125 0.5
1.8357584 0 -0.037419535 0.75 1
-1.8357584 0 -0.03741937 0.75 0.5
1.8357584 -0.0073001734 -0.036700528 0.71875 1
-1.8357584 -0.0073001734 -0.036700364 0.71875 0.5
1.8357584 -0.014319805 -0.03457115 0.6875 1
-1.8357584 -0.014319805 -0.034570985 0.6875 0.5
1.8357584 -0.020789135 -0.031113219 0.65625 1
-1.8357584 -0.020789135 -0.031113058 0.65625 0.5
1.8357584 -0.026459549 -0.026459629 0.625 1
-1.8357584 -0.026459549 -0.026459469 0.625 0.5
1.8357584 -0.031113138 -0.020789215 0.59375 1
-1.8357584 -0.031113138 -0.020789055 0.59375 0.5
1.8357584 -0.034571066 -0.0143198855 0.5625 1
-1.8357584 -0.034571066 -0.014319725 0.5625 0.5
1.8357584 -0.036700446 -0.0073002535 0.53125 1
-1.8357584 -0.036700446 -0.0073000933 0.53125 0.5
1.8357584 -0.037419453 -8.024355e-08 0.5 1
-1.8357584 -0.037419453 8.024355e-08 0.5 0.5
1.8357584 -0.036700446 0.0073000933 0.46875 1
-1.8357584 -0.036700446 0.0073002535 0.46875 0.5
1.8357584 -0.034571066 0.014319725 0.4375 1
-1.8357584 -0.034571066 0.0143198855 0.4375 0.5
1.8357584 -0.031113138 0.020789055 0.40625 1
-1.8357584 -0.031113138 0.020789215 0.40625 0.5
1.8357584 -0.026459549 0.026459469 0.375 1
-1.8357584 -0.026459549 0.026459629 0.375 0.5
1.8357584 -0.020789135 0.031113058 0.34375 1
-1.8357584 -0.020789135 0.031113219 0.34375 0.5
1.8357584 -0.014319805 0.034570985 0.3125 1
-1.8357584 -0.014319805 0.03457115 0.3125 0.5
1.8357584 -0.0073001734 0.036700364 0.28125 1
-1.8357584 -0.0073001734 0.036700528 0.28125 0.5
1.8357584 0 0.03741937 0.25 1
-1.8357584 0 0.037419535 0.25 0.5
1.8357584 0.0073001734 0.036700364 0.21875 1
-1.8357584 0.0073001734 0.036700528 0.21875 0.5
1.8357584 0.014319805 0.034570985 0.1875 1
-1.8357584 0.014319805 0.03457115 0.1875 0.5
1.8357584 0.020789135 0.031113058 0.15625 1
-1.8357584 0.020789135 0.031113219 0.15625 0.5
1.8357584 0.026459549 0.026459469 0.125 1
-1.8357584 0.026459549 0.026459629 0.125 0.5
1.8357584 0.031113138 0.020789055 0.09375 1
-1.8357584 0.031113138 0.020789215 0.09375 0.5
1.8357584 0.034571066 0.014319725 0.0625 1
-1.8357584 0.034571066 0.0143198855 0.0625 0.5
1.8357584 0.036700446 -0.0073002535 0.29682168 0.48538846
1.8357584 0.037419453 -8.024355e-08 0.25 0.49
1.8357584 0.036700446 0.0073000933 0.20317832 0.48538846
1.8357584 0.034571066 0.014319725 0.15815598 0.47173107
1.8357584 0.031113138 0.020789055 0.11666314 0.4495527
1.8357584 0.026459549 0.026459469 0.080294386 0.41970563
1.8357584 0.020789135 0.031113058 0.0504473 0.38333684
1.8357584 0.014319805 0.034570985 0.028268933 0.34184402
1.8357584 0.0073001734 0.036700364 0.014611557 0.29682168
1.8357584 0 0.03741937 0.010000005 0.25
1.8357584 -0.0073001734 0.036700364 0.014611557 0.20317832
1.8357584 -0.014319805 0.034570985 0.028268933 0.15815598
1.8357584 -0.020789135 0.031113058 0.0504473 0.11666314
1.8357584 -0.026459549 0.026459469 0.080294386 0.080294386
1.8357584 -0.031113138 0.020789055 0.11666314 0.0504473
1.8357584 -0.034571066 0.014319725 0.15815598 0.028268933
1.8357584 -0.036700446 0.0073000933 0.20317832 0.014611557
1.8357584 -0.037419453 -8.024355e-08 0.25 0.010000005
1.8357584 -0.036700446 -0.0073002535 0.29682168 0.014611557
1.8357584 -0.034571066 -0.0143198855 0.34184402 0.028268933
1.8357584 -0.031113138 -0.020789215 0.38333684 0.0504473
1.8357584 -0.026459549 -0.026459629 0.41970563 0.080294386
1.8357584 -0.020789135 -0.031113219 0.4495527 0.11666314
1.8357584 -0.014319805 -0.03457115 0.47173107 0.15815598
1.8357584 -0.0073001734 -0.036700528 0.48538846 0.20317832
1.8357584 0 -0.037419535 0.49 0.25
1.8357584 0.0073001734 -0.036700528 0.48538846 0.29682168
1.8357584 0.014319805 -0.03457115 0.47173107 0.34184402
1.8357584 0.020789135 -0.031113219 0.4495527 0.38333684
1.8357584 0.026459549 -0.026459629 0.41970563 0.41970563
1.8357584 0.031113138 -0.020789215 0.38333684 0.4495527
1.8357584 0.034571066 -0.0143198855 0.34184402 0.47173107
1.8357584 0.036700446 0.0073000933 0.03125 1
-1.8357584 0.036700446 0.0073002535 0.03125 0.5
1.8357584 0.037419453 -8.024355e-08 0 1
-1.8357584 0.037419453 8.024355e-08 0 0.5
-1.8357584 0.037419453 8.024355e-08 0.75 0.49
-1.8357584 0.036700446 -0.0073000933 0.79682165 0.48538846
-1.8357584 0.034571066 -0.014319725 0.841844 0.47173107
-1.8357584 0.031113138 -0.020789055 0.88333684 0.4495527
-1.8357584 0.026459549 -0.026459469 0.9197056 0.41970563
-1.8357584 0.020789135 -0.031113058 0.9495527 0.38333684
-1.8357584 0.014319805 -0.034570985 0.97173107 0.34184402
-1.8357584 0.0073001734 -0.036700364 0.98538846 0.29682168
-1.8357584 0 -0.03741937 0.99 0.25
-1.8357584 -0.0073001734 -0.036700364 0.98538846 0.20317832
-1.8357584 -0.014319805 -0.034570985 0.97173107 0.15815598
-1.8357584 -0.020789135 -0.031113058 0.9495527 0.11666314
-1.8357584 -0.026459549 -0.026459469 0.9197056 0.080294386
-1.8357584 -0.031113138 -0.020789055 0.88333684 0.0504473
-1.8357584 -0.034571066 -0.014319725 0.841844 0.028268933
-1.8357584 -0.036700446 -0.0073000933 0.79682165 0.014611557
-1.8357584 -0.037419453 8.024355e-08 0.75 0.010000005
-1.8357584 -0.036700446 0.0073002535 0.70317835 0.014611557
-1.8357584 -0.034571066 0.0143198855 0.658156 0.028268933
-1.8357584 -0.031113138 0.020789215 0.61666316 0.0504473
-1.8357584 -0.026459549 0.026459629 0.5802944 0.080294386
-1.8357584 -0.020789135 0.031113219 0.5504473 0.11666314
-1.8357584 -0.014319805 0.03457115 0.52826893 0.15815598
-1.8357584 -0.0073001734 0.036700528 0.51461154 0.20317832
-1.8357584 0 0.037419535 0.51 0.25
-1.8357584 0.0073001734 0.036700528 0.51461154 0.29682168
-1.8357584 0.014319805 0.03457115 0.52826893 0.34184402
-1.8357584 0.020789135 0.031113219 0.5504473 0.38333684
-1.8357584 0.026459549 0.026459629 0.5802944 0.41970563
-1.8357584 0.031113138 0.020789215 0.61666316 0.4495527
-1.8357584 0.034571066 0.0143198855 0.658156 0.47173107
-1.8357584 0.036700446 0.0073002535 0.70317835 0.48538846
0 3.9353745 0.18689875 1 0.5
0 0 0.18689857 1 1
0.03646212 0 0.18330736 0.96875 1
0.03646212 3.9353745 0.18330754 0.96875 0.5
0.071523026 0 0.17267175 0.9375 1
0.071523026 3.9353745 0.17267193 0.9375 0.5
0.10383534 0 0.15540047 0.90625 1
0.10383534 3.9353745 0.15540065 0.90625 0.5
0.13215731 0 0.13215722 0.875 1
0.13215731 3.9353745 0.1321574 0.875 0.5
0.15540056 0 0.10383525 0.84375 1
0.15540056 3.9353745 0.103835426 0.84375 0.5
0.17267184 0 0.071522936 0.8125 1
0.17267184 3.9353745 0.071523115 0.8125 0.5
0.18330745 0 0.036462035 0.78125 1
0.18330745 3.9353745 0.036462206 0.78125 0.5
0.18689866 0 -8.601034e-08 0.75 1
0.18689866 3.9353745 8.601034e-08 0.75 0.5
0.18330745 0 -0.036462206 0.71875 1
0.18330745 3.9353745 -0.036462035 0.71875 0.5
0.17267184 0 -0.071523115 0.6875 1
0.17267184 3.9353745 -0.071522936 0.6875 0.5
0.15540056 0 -0.103835426 0.65625 1
0.15540056 3.9353745 -0.10383525 0.65625 0.5
0.13215731 0 -0.1321574 0.625 1
0.13215731 3.9353745 -0.13215722 0.625 0.5
0.10383534 0 -0.15540065 0.59375 1
0.10383534 3.9353745 -0.15540047 0.59375 0.5
0.071523026 0 -0.17267193 0.5625 1
0.071523026 3.9353745 -0.17267175 0.5625 0.5
0.03646212 0 -0.18330754 0.53125 1
0.03646212 3.9353745 -0.18330736 0.53125 0.5
0 0 -0.18689875 0.5 1
0 3.9353745 -0.18689857 0.5 0.5
-0.03646212 0 -0.18330754 0.46875 1
-0.03646212 3.9353745 -0.18330736 0.46875 0.5
-0.071523026 0 -0.17267193 0.4375 1
-0.071523026 3.9353745 -0.17267175 0.4375 0.5
-0.10383534 0 -0.15540065 0.40625 1
-0.10383534 3.9353745 -0.15540047 0.40625 0.5
-0.13215731 0 -0.1321574 0.375 1
-0.13215731 3.9353745 -0.13215722 0.375 0.5
-0.15540056 0 -0.103835426 0.34375 1
-0.15540056 3.9353745 -0.10383525 0.34375 0.5
-0.17267184 0 -0.071523115 0.3125 1
-0.17267184 3.9353745 -0.071522936 0.3125 0.5
-0.18330745 0 -0.036462206 0.28125 1
-0.18330745 3.9353745 -0.036462035 0.28125 0.5
-0.18689866 0 -8.601034e-08 0.25 1
-0.18689866 3.9353745 8.601034e-08 0.25 0.5
-0.18330745 0 0.036462035 0.21875 1
-0.18330745 3.9353745 0.036462206 0.21875 0.5
-0.17267184 0 0.071522936 0.1875 1
-0.17267184 3.9353745 0.071523115 0.1875 0.5
-0.15540056 0 0.10383525 0.15625 1
-0.15540056 3.9353745 0.103835426 0.15625 0.5
-0.13215731 0 0.13215722 0.125 1
-0.13215731 3.9353745 0.1321574 0.125 0.5
-0.10383534 0 0.15540047 0.09375 1
-0.10383534 3.9353745 0.15540065 0.09375 0.5
-0.071523026 0 0.17267175 0.0625 1
-0.071523026 3.9353745 0.17267193 0.0625 0.5
0.03646212 0 0.18330736 0.29682168 0.48538846
0 0 0.18689857 0.25 0.49
-0.03646212 0 0.18330736 0.20317832 0.48538846
-0.071523026 0 0.17267175 0.15815598 0.47173107
-0.10383534 0 0.15540047 0.11666314 0.4495527
-0.13215731 0 0.13215722 0.080294386 0.41970563
-0.15540056 0 0.10383525 0.0504473 0.38333684
-0.17267184 0 0.071522936 0.028268933 0.34184402
-0.18330745 0 0.036462035 0.014611542 0.29682168
-0.18689866 0 -8.601034e-08 0.010000005 0.25
-0.18330745 0 -0.036462206 0.014611542 0.20317832
-0.17267184 0 -0.071523115 0.028268933 0.15815598
-0.15540056 0 -0.103835426 0.0504473 0.11666314
-0.13215731 0 -0.1321574 0.080294386 0.080294386
-0.10383534 0 -0.15540065 0.11666314 0.0504473
-0.071523026 0 -0.17267193 0.15815598 0.028268933
-0.03646212 0 -0.18330754 0.20317832 0.014611542
0 0 -0.18689875 0.25 0.010000005
0.03646212 0 -0.18330754 0.29682168 0.014611542
0.071523026 0 -0.17267193 0.34184402 0.028268933
0.10383534 0 -0.15540065 0.38333684 0.0504473
0.13215731 0 -0.1321574 0.41970563 0.080294386
0.15540056 0 -0.103835426 0.4495527 0.11666314
0.17267184 0 -0.071523115 0.47173107 0.15815598
0.18330745 0 -0.036462206 0.48538846 0.20317832
0.18689866 0 -8.601034e-08 0.49 0.25
0.18330745 0 0.036462035 0.48538846 0.29682168
0.17267184 0 0.071522936 0.47173107 0.34184402
0.15540056 0 0.10383525 0.4495527 0.38333684
0.13215731 0 0.13215722 0.41970563 0.41970563
0.10383534 0 0.15540047 0.38333684 0.4495527
0.071523026 0 0.17267175 0.34184402 0.47173107
-0.03646212 0 0.18330736 0.03125 1
-0.03646212 3.9353745 0.18330754 0.03125 0.5
0 0 0.18689857 0 1
0 3.9353745 0.18689875 0 0.5
0 3.9353745 0.18689875 0.75 0.49
0.03646212 3.9353745 0.18330754 0.79682165 0.48538846
0.071523026 3.9353745 0.17267193 0.841844 0.47173107
0.10383534 3.9353745 0.15540065 0.88333684 0.4495527
0.13215731 3.9353745 0.1321574 0.9197056 0.41970563
0.15540056 3.9353745 0.103835426 0.9495527 0.38333684
0.17267184 3.9353745 0.071523115 0.97173107 0.34184402
0.18330745 3.9353745 0.036462206 0.98538846 0.29682168
0.18689866 3.9353745 8.601034e-08 0.99 0.25
0.18330745 3.9353745 -0.036462035 0.98538846 0.20317832
0.17267184 3.9353745 -0.071522936 0.97173107 0.15815598
0.15540056 3.9353745 -0.10383525 0.9495527 0.11666314
0.13215731 3.9353745 -0.13215722 0.9197056 0.080294386
0.10383534 3.9353745 -0.15540047 0.88333684 0.0504473
0.071523026 3.9353745 -0.17267175 0.841844 0.028268933
0.03646212 3.9353745 -0.18330736 0.79682165 0.014611542
0 3.9353745 -0.18689857 0.75 0.010000005
-0.03646212 3.9353745 -0.18330736 0.70317835 0.014611542
-0.071523026 3.9353745 -0.17267175 0.658156 0.028268933
-0.10383534 3.9353745 -0.15540047 0.61666316 0.0504473
-0.13215731 3.9353745 -0.13215722 0.5802944 0.080294386
-0.15540056 3.9353745 -0.10383525 0.5504473 0.11666314
-0.17267184 3.9353745 -0.071522936 0.52826893 0.15815598
-0.18330745 3.9353745 -0.036462035 0.51461154 0.20317832
-0.18689866 3.9353745 8.601034e-08 0.51 0.25
-0.18330745 3.9353745 0.036462206 0.51461154 0.29682168
-0.17267184 3.9353745 0.071523115 0.52826893 0.34184402
-0.15540056 3.9353745 0.103835426 0.5504473 0.38333684
-0.13215731 3.9353745 0.1321574 0.5802944 0.41970563
-0.10383534 3.9353745 0.15540065 0.61666316 0.4495527
-0.071523026 3.9353745 0.17267193 0.658156 0.47173107
-0.03646212 3.9353745 0.18330754 0.70317835 0.48538846
-0.55 -0.85 -0.55 0.375 0
-0.55 -0.85 0.95 0.625 0
-0.55 -0.75 0.95 0.625 0.25
-0.55 -0.75 -0.55 0.375 0.25
0.95 -0.75 0.95 0.625 0.5
0.95 -0.75 -0.55 0.375 0.5
0.95 -0.85 0.95 0.625 0.75
0.95 -0.85 -0.55 0.375 0.75
-0.55 -0.85 0.95 0.625 1
-0.55 -0.85 -0.55 0.375 1
-0.55 -0.75 -0.55 0.125 0.5
-0.55 -0.85 -0.55 0.125 0.75
-0.55 -0.75 0.95 0.875 0.5
-0.55 -0.85 0.95 0.875 0.75
-1.5779809 -0.90693575 -0.45307213 0.375 0
-1.5779809 -0.90693575 1.5234823 0.625 0
-1.5779809 -0.28083748 1.5234823 0.625 0.25
-1.5779809 -0.28083748 -0.45307213 0.375 0.25
0.018232346 -0.28083748 1.5234823 0.625 0.5
0.018232346 -0.28083748 -0.45307213 0.375 0.5
0.018232346 -0.90693575 1.5234823 0.625 0.75
0.018232346 -0.90693575 -0.45307213 0.375 0.75
-1.5779809 -0.90693575 1.5234823 0.625 1
-1.5779809 -0.90693575 -0.45307213 0.375 1
-1.5779809 -0.28083748 -0.45307213 0.125 0.5
-1.5779809 -0.90693575 -0.45307213 0.125 0.75
-1.5779809 -0.28083748 1.5234823 0.875 0.5
-1.5779809 -0.90693575 1.5234823 0.875 0.75
-0.51523024 -1.9402735 -0.89574367 0.375 0
-0.51523024 -1.9402735 0.9977599 0.625 0
-0.51523024 -1.2353675 0.9977599 0.625 0.25
-0.51523024 -1.2353675 -0.89574367 0.375 0.25
0.2561273 -1.2353675 0.9977599 0.625 0.5
0.2561273 -1.2353675 -0.89574367 0.375 0.5
0.2561273 -1.9402735 0.9977599 0.625 0.75
0.2561273 -1.9402735 -0.89574367 0.375 0.75
-0.51523024 -1.9402735 0.9977599 0.625 1
-0.51523024 -1.9402735 -0.89574367 0.375 1
-0.51523024 -1.2353675 -0.89574367 0.125 0.5
-0.51523024 -1.9402735 -0.89574367 0.125 0.75
-0.51523024 -1.2353675 0.9977599 0.875 0.5
-0.51523024 -1.9402735 0.9977599 0.875 0.75
0.27432847 -0.8414318 1.4770861 0.375 0
0.27432847 -0.8414318 2.208967 0.625 0
0.27432847 -0.31883627 2.208967 0.625 0.25
0.27432847 -0.31883627 1.4770861 0.375 0.25
1.6855439 -0.31883627 2.208967 0.625 0.5
1.6855439 -0.31883627 1.4770861 0.375 0.5
1.6855439 -0.8414318 2.208967 0.625 0.75
1.6855439 -0.8414318 1.4770861 0.375 0.75
0.27432847 -0.8414318 2.208967 0.625 1
0.27432847 -0.8414318 1.4770861 0.375 1
0.27432847 -0.31883627 1.4770861 0.125 0.5
0.27432847 -0.8414318 1.4770861 0.125 0.75
0.27432847 -0.31883627 2.208967 0.875 0.5
0.27432847 -0.8414318 2.208967 0.875 0.75
4 0 1 2 3
4 3 2 4 5
4 5 4 6 7
4 7 6 8 9
4 9 8 10 11
4 11 10 12 13
4 13 12 14 15
4 15 14 16 17
4 17 16 18 19
4 19 18 20 21
4 21 20 22 23
4 23 22 24 25
4 25 24 26 27
4 27 26 28 29
4 29 28 30 31
4 31 30 32 33
4 33 32 34 35
4 35 34 36 37
4 37 36 38 39
4 39 38 40 41
4 41 40 42 43
4 43 42 44 45
4 45 44 46 47
4 47 46 48 49
4 49 48 50 51
4 51 50 52 53
4 53 52 54 55
4 55 54 56 57
4 57 56 58 59
4 59 58 60 61
32 62 63 64 65 66 67 68 69 70 71 72 73 74 75 76 77 78 79 80 81 82 83 84 85 86 87 88 89 90 91 92 93
4 61 60 94 95
4 95 94 96 97
32 98 99 100 101 102 103 104 105 106 107 108 109 110 111 112 113 114 115 116 117 118 119 120 121 122 123 124 125 126 127 128 129
4 130 131 132 133
4 133 132 134 135
4 135 134 136 137
4 137 136 138 139
4 139 138 140 141
4 141 140 142 143
4 143 142 144 145
4 145 144 146 147
4 147 146 148 149
4 149 148 150 151
4 151 150 152 153
4 153 152 154 155
4 155 154 156 157
4 157 156 158 159
4 159 158 160 161
4 161 160 162 163
4 163 162 164 165
4 165 164 166 167
4 167 166 168 169
4 169 168 170 171
4 171 170 172 173
4 173 172 174 175
4 175 174 176 177
4 177 176 178 179
4 179 178 180 181
4 181 180 182 183
4 183 182 184 185
4 185 184 186 187
4 187 186 188 189
4 189 188 190 191
32 192 193 194 195 196 197 198 199 200 201 202 203 204 205 206 207 208 209 210 211 212 213 214 215 216 217 218 219 220 221 222 223
4 191 190 224 225
4 225 224 226 227
32 228 229 230 231 232 233 234 235 236 237 238 239 240 241 242 243 244 245 246 247 248 249 250 251 252 253 254 255 256 257 258 259
4 260 261 262 263
4 263 262 264 265
4 265 264 266 267
4 267 266 268 269
4 270 265 267 271
4 264 272 273 266
4 274 275 276 277
4 277 276 278 279
4 279 278 280 281
4 281 280 282 283
4 284 279 281 285
4 278 286 287 280
4 288 289 290 291
4 291 290 292 293
4 293 292 294 295
4 295 294 296 297
4 298 293 295 299
4 292 300 301 294
4 302 303 304 305
4 305 304 306 307
4 307 306 308 309
4 309 308 310 311
4 312 307 309 313
4 306 314 315 308
