ply
format ascii 1.0
comment Created in Blender version 5.1.2
element vertex 288
property float x
property float y
property float z
property float s
property float t
element face 80
property list uchar uint vertex_indices
end_header
-2.4871879 0.06517868 1.0871843e-07 1 0.5
2.4871879 0.06517868 -1.0871843e-07 1 1
2.4871879 0.06392629 -0.012715838 0.96875 1
-2.4871879 0.06392629 -0.01271562 0.96875 0.5
2.4871879 0.060217243 -0.02494291 0.9375 1
-2.4871879 0.060217243 -0.024942694 0.9375 0.5
2.4871879 0.05419409 -0.036211442 0.90625 1
-2.4871879 0.05419409 -0.036211226 0.90625 0.5
2.4871879 0.046088286 -0.046088394 0.875 1
-2.4871879 0.046088286 -0.046088178 0.875 0.5
2.4871879 0.036211334 -0.054194197 0.84375 1
-2.4871879 0.036211334 -0.05419398 0.84375 0.5
2.4871879 0.024942802 -0.06021735 0.8125 1
-2.4871879 0.024942802 -0.060217135 0.8125 0.5
2.4871879 0.012715729 -0.0639264 0.78125 1
-2.4871879 0.012715729 -0.063926175 0.78125 0.5
2.4871879 0 -0.06517879 0.75 1
-2.4871879 0 -0.065178566 0.75 0.5
2.4871879 -0.012715729 -0.0639264 0.71875 1
-2.4871879 -0.012715729 -0.063926175 0.71875 0.5
2.4871879 -0.024942802 -0.06021735 0.6875 1
-2.4871879 -0.024942802 -0.060217135 0.6875 0.5
2.4871879 -0.036211334 -0.054194197 0.65625 1
-2.4871879 -0.036211334 -0.05419398 0.65625 0.5
2.4871879 -0.046088286 -0.046088394 0.625 1
-2.4871879 -0.046088286 -0.046088178 0.625 0.5
2.4871879 -0.05419409 -0.036211442 0.59375 1
-2.4871879 -0.05419409 -0.036211226 0.59375 0.5
2.4871879 -0.060217243 -0.02494291 0.5625 1
-2.4871879 -0.060217243 -0.024942694 0.5625 0.5
2.4871879 -0.06392629 -0.012715838 0.53125 1
-2.4871879 -0.06392629 -0.01271562 0.53125 0.5
2.4871879 -0.06517868 -1.0871843e-07 0.5 1
-2.4871879 -0.06517868 1.0871843e-07 0.5 0.5
2.4871879 -0.06392629 0.01271562 0.46875 1
-2.4871879 -0.06392629 0.012715838 0.46875 0.5
2.4871879 -0.060217243 0.024942694 0.4375 1
-2.4871879 -0.060217243 0.02494291 0.4375 0.5
2.4871879 -0.05419409 0.036211226 0.40625 1
-2.4871879 -0.05419409 0.036211442 0.40625 0.5
2.4871879 -0.046088286 0.046088178 0.375 1
-2.4871879 -0.046088286 0.046088394 0.375 0.5
2.4871879 -0.036211334 0.05419398 0.34375 1
-2.4871879 -0.036211334 0.054194197 0.34375 0.5
2.4871879 -0.024942802 0.060217135 0.3125 1
-2.4871879 -0.024942802 0.06021735 0.3125 0.5
2.4871879 -0.012715729 0.063926175 0.28125 1
-2.4871879 -0.012715729 0.0639264 0.28125 0.5
2.4871879 0 0.065178566 0.25 1
-2.4871879 0 0.06517879 0.25 0.5
2.4871879 0.012715729 0.063926175 0.21875 1
-2.4871879 0.012715729 0.0639264 0.21875 0.5
2.4871879 0.024942802 0.060217135 0.1875 1
-2.4871879 0.024942802 0.06021735 0.1875 0.5
2.4871879 0.036211334 0.05419398 0.15625 1
-2.4871879 0.036211334 0.054194197 0.15625 0.5
2.4871879 0.046088286 0.046088178 0.125 1
-2.4871879 0.046088286 0.046088394 0.125 0.5
2.4871879 0.05419409 0.036211226 0.09375 1
-2.4871879 0.05419409 0.036211442 0.09375 0.5
2.4871879 0.060217243 0.024942694 0.0625 1
-2.4871879 0.060217243 0.02494291 0.0625 0.5
2.4871879 0.06392629 -0.012715838 0.29682168 0.48538846
2.4871879 0.06517868 -1.0871843e-07 0.25 0.49
2.4871879 0.06392629 0.01271562 0.20317832 0.48538846
2.4871879 0.060217243 0.024942694 0.15815598 0.47173107
2.4871879 0.05419409 0.036211226 0.11666314 0.4495527
2.4871879 0.046088286 0.046088178 0.08029437 0.41970563
2.4871879 0.036211334 0.05419398 0.0504473 0.38333684
2.4871879 0.024942802 0.060217135 0.028268933 0.34184402
2.4871879 0.012715729 0.063926175 0.014611542 0.29682168
2.4871879 0 0.065178566 0.010000005 0.25
2.4871879 -0.012715729 0.063926175 0.014611542 0.20317832
2.4871879 -0.024942802 0.060217135 0.028268933 0.15815598
2.4871879 -0.036211334 0.05419398 0.0504473 0.11666314
2.4871879 -0.046088286 0.046088178 0.08029437 0.08029437
2.4871879 -0.05419409 0.036211226 0.11666314 0.0504473
2.4871879 -0.060217243 0.024942694 0.15815598 0.028268933
2.4871879 -0.06392629 0.01271562 0.20317832 0.014611542
2.4871879 -0.06517868 -1.0871843e-07 0.25 0.010000005
2.4871879 -0.06392629 -0.012715838 0.29682168 0.014611542
2.4871879 -0.060217243 -0.02494291 0.34184402 0.028268933
2.4871879 -0.05419409 -0.036211442 0.38333684 0.0504473
2.4871879 -0.046088286 -0.046088394 0.41970563 0.08029437
2.4871879 -0.036211334 -0.054194197 0.4495527 0.11666314
2.4871879 -0.024942802 -0.06021735 0.47173107 0.15815598
2.4871879 -0.012715729 -0.0639264 0.48538846 0.20317832
2.4871879 0 -0.06517879 0.49 0.25
2.4871879 0.012715729 -0.0639264 0.48538846 0.29682168
2.4871879 0.024942802 -0.06021735 0.47173107 0.34184402
2.4871879 0.036211334 -0.054194197 0.4495527 0.38333684
2.4871879 0.046088286 -0.046088394 0.41970563 0.41970563
2.4871879 0.05419409 -0.036211442 0.38333684 0.4495527
2.4871879 0.060217243 -0.02494291 0.34184402 0.47173107
2.4871879 0.06392629 0.01271562 0.03125 1
-2.4871879 0.06392629 0.012715838 0.03125 0.5
2.4871879 0.06517868 -1.0871843e-07 0 1
-2.4871879 0.06517868 1.0871843e-07 0 0.5
-2.4871879 0.06517868 1.0871843e-07 0.75 0.49
-2.4871879 0.06392629 -0.01271562 0.79682165 0.48538846
-2.4871879 0.060217243 -0.024942694 0.841844 0.47173107
-2.4871879 0.05419409 -0.036211226 0.88333684 0.4495527
-2.4871879 0.046088286 -0.046088178 0.9197056 0.41970563
-2.4871879 0.036211334 -0.05419398 0.9495527 0.38333684
-2.4871879 0.024942802 -0.060217135 0.97173107 0.34184402
-2.4871879 0.012715729 -0.063926175 0.98538846 0.29682168
-2.4871879 0 -0.065178566 0.99 0.25
-2.4871879 -0.012715729 -0.063926175 0.98538846 0.20317832
-2.4871879 -0.024942802 -0.060217135 0.97173107 0.15815598
-2.4871879 -0.036211334 -0.05419398 0.9495527 0.11666314
-2.4871879 -0.046088286 -0.046088178 0.9197056 0.08029437
-2.4871879 -0.05419409 -0.036211226 0.88333684 0.0504473
-2.4871879 -0.060217243 -0.024942694 0.841844 0.028268933
-2.4871879 -0.06392629 -0.01271562 0.79682165 0.014611542
-2.4871879 -0.06517868 1.0871843e-07 0.75 0.010000005
-2.4871879 -0.06392629 0.012715838 0.70317835 0.014611542
-2.4871879 -0.060217243 0.02494291 0.658156 0.028268933
-2.4871879 -0.05419409 0.036211442 0.61666316 0.0504473
-2.4871879 -0.046088286 0.046088394 0.5802944 0.08029437
-2.4871879 -0.036211334 0.054194197 0.5504473 0.11666314
-2.4871879 -0.024942802 0.06021735 0.52826893 0.15815598
-2.4871879 -0.012715729 0.0639264 0.51461154 0.20317832
-2.4871879 0 0.06517879 0.51 0.25
-2.4871879 0.012715729 0.0639264 0.51461154 0.29682168
-2.4871879 0.024942802 0.06021735 0.52826893 0.34184402
-2.4871879 0.036211334 0.054194197 0.5504473 0.38333684
-2.4871879 0.046088286 0.046088394 0.5802944 0.41970563
-2.4871879 0.05419409 0.036211442 0.61666316 0.4495527
-2.4871879 0.060217243 0.02494291 0.658156 0.47173107
-2.4871879 0.06392629 0.012715838 0.70317835 0.48538846
0 2.587927 0.1555115 1 0.5
0 0 0.15551138 1 1
0.030338777 0 0.15252326 0.96875 1
0.030338777 2.587927 0.15252338 0.96875 0.5
0.059511654 0 0.14367378 0.9375 1
0.059511654 2.587927 0.1436739 0.9375 0.5
0.08639753 0 0.12930298 0.90625 1
0.08639753 2.587927 0.1293031 0.90625 0.5
0.10996319 0 0.109963134 0.875 1
0.10996319 2.587927 0.10996325 0.875 0.5
0.12930304 0 0.08639747 0.84375 1
0.12930304 2.587927 0.08639759 0.84375 0.5
0.14367384 0 0.0595116 0.8125 1
0.14367384 2.587927 0.05951171 0.8125 0.5
0.15252332 0 0.030338721 0.78125 1
0.15252332 2.587927 0.030338833 0.78125 0.5
0.15551144 0 -5.6560943e-08 0.75 1
0.15551144 2.587927 5.6560943e-08 0.75 0.5
0.15252332 0 -0.030338833 0.71875 1
0.15252332 2.587927 -0.030338721 0.71875 0.5
0.14367384 0 -0.05951171 0.6875 1
0.14367384 2.587927 -0.0595116 0.6875 0.5
0.12930304 0 -0.08639759 0.65625 1
0.12930304 2.587927 -0.08639747 0.65625 0.5
0.10996319 0 -0.10996325 0.625 1
0.10996319 2.587927 -0.109963134 0.625 0.5
0.08639753 0 -0.1293031 0.59375 1
0.08639753 2.587927 -0.12930298 0.59375 0.5
0.059511654 0 -0.1436739 0.5625 1
0.059511654 2.587927 -0.14367378 0.5625 0.5
0.030338777 0 -0.15252338 0.53125 1
0.030338777 2.587927 -0.15252326 0.53125 0.5
0 0 -0.1555115 0.5 1
0 2.587927 -0.15551138 0.5 0.5
-0.030338777 0 -0.15252338 0.46875 1
-0.030338777 2.587927 -0.15252326 0.46875 0.5
-0.059511654 0 -0.1436739 0.4375 1
-0.059511654 2.587927 -0.14367378 0.4375 0.5
-0.08639753 0 -0.1293031 0.40625 1
-0.08639753 2.587927 -0.12930298 0.40625 0.5
-0.10996319 0 -0.10996325 0.375 1
-0.10996319 2.587927 -0.109963134 0.375 0.5
-0.12930304 0 -0.08639759 0.34375 1
-0.12930304 2.587927 -0.08639747 0.34375 0.5
-0.14367384 0 -0.05951171 0.3125 1
-0.14367384 2.587927 -0.0595116 0.3125 0.5
-0.15252332 0 -0.030338833 0.28125 1
-0.15252332 2.587927 -0.030338721 0.28125 0.5
-0.15551144 0 -5.6560943e-08 0.25 1
-0.15551144 2.587927 5.6560943e-08 0.25 0.5
-0.15252332 0 0.030338721 0.21875 1
-0.15252332 2.587927 0.030338833 0.21875 0.5
-0.14367384 0 0.0595116 0.1875 1
-0.14367384 2.587927 0.05951171 0.1875 0.5
-0.12930304 0 0.08639747 0.15625 1
-0.12930304 2.587927 0.08639759 0.15625 0.5
-0.10996319 0 0.109963134 0.125 1
-0.10996319 2.587927 0.10996325 0.125 0.5
-0.08639753 0 0.12930298 0.09375 1
-0.08639753 2.587927 0.1293031 0.09375 0.5
-0.059511654 0 0.14367378 0.0625 1
-0.059511654 2.587927 0.1436739 0.0625 0.5
0.030338777 0 0.15252326 0.29682168 0.48538846
0 0 0.15551138 0.25 0.49
-0.030338777 0 0.15252326 0.20317832 0.48538846
-0.059511654 0 0.14367378 0.15815598 0.47173107
-0.08639753 0 0.12930298 0.11666314 0.4495527
-0.10996319 0 0.109963134 0.08029437 0.41970563
-0.12930304 0 0.08639747 0.0504473 0.38333684
-0.14367384 0 0.0595116 0.028268918 0.34184402
-0.15252332 0 0.030338721 0.014611542 0.29682168
-0.15551144 0 -5.6560943e-08 0.010000005 0.25
-0.15252332 0 -0.030338833 0.014611542 0.20317832
-0.14367384 0 -0.05951171 0.028268918 0.15815598
-0.12930304 0 -0.08639759 0.0504473 0.11666314
-0.10996319 0 -0.10996325 0.08029437 0.08029437
-0.08639753 0 -0.1293031 0.11666314 0.0504473
-0.059511654 0 -0.1436739 0.15815598 0.028268918
-0.030338777 0 -0.15252338 0.20317832 0.014611542
0 0 -0.1555115 0.25 0.010000005
0.030338777 0 -0.15252338 0.29682168 0.014611542
0.059511654 0 -0.1436739 0.34184402 0.028268918
0.08639753 0 -0.1293031 0.38333684 0.0504473
0.10996319 0 -0.10996325 0.41970563 0.08029437
0.12930304 0 -0.08639759 0.4495527 0.11666314
0.14367384 0 -0.05951171 0.47173107 0.15815598
0.15252332 0 -0.030338833 0.48538846 0.20317832
0.15551144 0 -5.6560943e-08 0.49 0.25
0.15252332 0 0.030338721 0.48538846 0.29682168
0.14367384 0 0.0595116 0.47173107 0.34184402
0.12930304 0 0.08639747 0.4495527 0.38333684
0.10996319 0 0.109963134 0.41970563 0.41970563
0.08639753 0 0.12930298 0.38333684 0.4495527
0.059511654 0 0.14367378 0.34184402 0.47173107
-0.030338777 0 0.15252326 0.03125 1
-0.030338777 2.587927 0.15252338 0.03125 0.5
0 0 0.15551138 0 1
0 2.587927 0.1555115 0 0.5
0 2.587927 0.1555115 0.75 0.49
0.030338777 2.587927 0.15252338 0.79682165 0.48538846
0.059511654 2.587927 0.1436739 0.841844 0.47173107
0.08639753 2.587927 0.1293031 0.88333684 0.4495527
0.10996319 2.587927 0.10996325 0.9197056 0.41970563
0.12930304 2.587927 0.08639759 0.9495527 0.38333684
0.14367384 2.587927 0.05951171 0.97173107 0.34184402
0.15252332 2.587927 0.030338833 0.98538846 0.29682168
0.15551144 2.587927 5.6560943e-08 0.99 0.25
0.15252332 2.587927 -0.030338721 0.98538846 0.20317832
0.14367384 2.587927 -0.0595116 0.97173107 0.15815598
0.12930304 2.587927 -0.08639747 0.9495527 0.11666314
0.10996319 2.587927 -0.109963134 0.9197056 0.08029437
0.08639753 2.587927 -0.12930298 0.88333684 0.0504473
0.059511654 2.587927 -0.14367378 0.841844 0.028268918
0.030338777 2.587927 -0.15252326 0.79682165 0.014611542
0 2.587927 -0.15551138 0.75 0.010000005
-0.030338777 2.587927 -0.15252326 0.70317835 0.014611542
-0.059511654 2.587927 -0.14367378 0.658156 0.028268918
-0.08639753 2.587927 -0.12930298 0.61666316 0.0504473
-0.10996319 2.587927 -0.109963134 0.5802944 0.08029437
-0.12930304 2.587927 -0.08639747 0.5504473 0.11666314
-0.14367384 2.587927 -0.0595116 0.52826893 0.15815598
-0.15252332 2.587927 -0.030338721 0.51461154 0.20317832
-0.15551144 2.587927 5.6560943e-08 0.51 0.25
-0.15252332 2.587927 0.030338833 0.51461154 0.29682168
-0.14367384 2.587927 0.05951171 0.52826893 0.34184402
-0.12930304 2.587927 0.08639759 0.5504473 0.38333684
-0.10996319 2.587927 0.10996325 0.5802944 0.41970563
-0.08639753 2.587927 0.1293031 0.61666316 0.4495527
-0.059511654 2.587927 0.1436739 0.658156 0.47173107
-0.030338777 2.587927 0.15252338 0.70317835 0.48538846
-0.55 -0.85 -0.55 0.375 0
-0.55 -0.85 0.95 0.625 0
-0.55 -0.75 0.95 0.625 0.25
-0.55 -0.75 -0.55 0.375 0.25
0.95 -0.75 0.95 0.625 0.5
0.95 -0.75 -0.55 0.375 0.5
0.95 -0.85 0.95 0.625 0.75
0.95 -0.85 -0.55 0.375 0.75
-0.55 -0.85 0.95 0.625 1
-0.55 -0.85 -0.55 0.375 1
-0.55 -0.75 -0.55 0.125 0.5
-0.55 -0.85 -0.55 0.125 0.75
-0.55 -0.75 0.95 0.875 0.5
-0.55 -0.85 0.95 0.875 0.75
-0.9052125 -2.10057 0.72756785 0.375 0
-0.9052125 -2.10057 1.9654567 0.625 0
-0.9052125 -1.8555291 1.9654567 0.625 0.25
-0.9052125 -1.8555291 0.72756785 0.375 0.25
-0.4624014 -1.8555291 1.9654567 0.625 0.5
-0.4624014 -1.8555291 0.72756785 0.375 0.5
-0.4624014 -2.10057 1.9654567 0.625 0.75
-0.4624014 -2.10057 0.72756785 0.375 0.75
-0.9052125 -2.10057 1.9654567 0.625 1
-0.9052125 -2.10057 0.72756785 0.375 1
-0.9052125 -1.8555291 0.72756785 0.125 0.5
-0.9052125 -2.10057 0.72756785 0.125 0.75
-0.9052125 -1.8555291 1.9654567 0.875 0.5
-0.9052125 -2.10057 1.9654567 0.875 0.75
4 0 1 2 3
4 3 2 4 5
4 5 4 6 7
4 7 6 8 9
4 9 8 10 11
4 11 10 12 13
4 13 12 14 15
4 15 14 16 17
4 17 16 18 19
4 19 18 20 21
4 21 20 22 23
4 23 22 24 25
4 25 24 26 27
4 27 26 28 29
4 29 28 30 31
4 31 30 32 33
4 33 32 34 35
4 35 34 36 37
4 37 36 38 39
4 39 38 40 41
4 41 40 42 43
4 43 42 44 45
4 45 44 46 47
4 47 46 48 49
4 49 48 50 51
4 51 50 52 53
4 53 52 54 55
4 55 54 56 57
4 57 56 58 59
4 59 58 60 61
32 62 63 64 65 66 67 68 69 70 71 72 73 74 75 76 77 78 79 80 81 82 83 84 85 86 87 88 89 90 91 92 93
4 61 60 94 95
4 95 94 96 97
32 98 99 100 101 102 103 104 105 106 107 108 109 110 111 112 113 114 115 116 117 118 119 120 121 122 123 124 125 126 127 128 129
4 130 131 132 133
4 133 132 134 135
4 135 134 136 137
4 137 136 138 139
4 139 138 140 141
4 141 140 142 143
4 143 142 144 145
4 145 144 146 147
4 147 146 148 149
4 149 148 150 151
4 151 150 152 153
4 153 152 154 155
4 155 154 156 157
4 157 156 158 159
4 159 158 160 161
4 161 160 162 163
4 163 162 164 165
4 165 164 166 167
4 167 166 168 169
4 169 168 170 171
4 171 170 172 173
4 173 172 174 175
4 175 174 176 177
4 177 176 178 179
4 179 178 180 181
4 181 180 182 183
4 183 182 184 185
4 185 184 186 187
4 187 186 188 189
4 189 188 190 191
32 192 193 194 195 196 197 198 199 200 201 202 203 204 205 206 207 208 209 210 211 212 213 214 215 216 217 218 219 220 221 222 223
4 191 190 224 225
4 225 224 226 227
32 228 229 230 231 232 233 234 235 236 237 238 239 240 241 242 243 244 245 246 247 248 249 250 251 252 253 254 255 256 257 258 259
4 260 261 262 263
4 263 262 264 265
4 265 264 266 267
4 267 266 268 269
4 270 265 267 271
4 264 272 273 266
4 274 275 276 277
4 277 276 278 279
4 279 278 280 281
4 281 280 282 283
4 284 279 281 285
4 278 286 287 280
